<?xml version="1.0" encoding="utf-8"?>
<!-- Generator: Adobe Illustrator 28.2.0, SVG Export Plug-In . SVG Version: 6.00 Build 0)  -->
<svg version="1.1" id="_图层_1" xmlns="http://www.w3.org/2000/svg" xmlns:xlink="http://www.w3.org/1999/xlink" x="0px" y="0px"
	 viewBox="0 0 200 200" style="enable-background:new 0 0 200 200;" xml:space="preserve">
<style type="text/css">
	.st0{fill:#2196F3;}
	.st1{fill:#FFFFFF;}
</style>
<g>
	<path class="st0" d="M168.6,169.6H31.2L1.8,199V32.5c0-16.2,13.2-29.4,29.4-29.4h137.4c16.2,0,29.4,13.2,29.4,29.4v107.8
		C198,156.4,184.7,169.6,168.6,169.6L168.6,169.6z"/>
	<path class="st1" d="M90.1,76.8h19.6v53.9H90.1V76.8z"/>
	<path class="st1" d="M90.1,52.3c0,5.4,4.4,9.8,9.8,9.8c5.4,0,9.8-4.4,9.8-9.8s-4.4-9.8-9.8-9.8C94.5,42.5,90.1,46.9,90.1,52.3z"/>
</g>
</svg>
