<?xml version="1.0" encoding="utf-8"?>
<!-- Generator: Adobe Illustrator 28.2.0, SVG Export Plug-In . SVG Version: 6.00 Build 0)  -->
<svg version="1.1" id="_图层_1" xmlns="http://www.w3.org/2000/svg" xmlns:xlink="http://www.w3.org/1999/xlink" x="0px" y="0px"
	 viewBox="0 0 200 200" style="enable-background:new 0 0 200 200;" xml:space="preserve">
<path style="fill:#E8EAF6;" d="M188,172.7H12.7V94.8L100.3,12L188,94.8V172.7z"/>
<path style="fill:#C5CAE9;" d="M173.3,85L149,60.7V26.6h24.3V85z M12.7,172.7H188V197H12.7V172.7z"/>
<path style="fill:#B71C1C;" d="M100.3,3.7L3,94.3l9.7,10.7l87.6-81.3L188,105l9.7-10.7L100.3,3.7z"/>
<path style="fill:#D84315;" d="M71.1,119.1h58.4V197H71.1V119.1z"/>
<path style="fill:#01579B;" d="M85.7,65.6h29.2v29.2H85.7V65.6z"/>
<path style="fill:#FF8A65;" d="M117.4,155.6c-1.5,0-2.4,1-2.4,2.4v9.7c0,1.5,1,2.4,2.4,2.4s2.4-1,2.4-2.4v-9.7
	C119.8,156.6,118.8,155.6,117.4,155.6z"/>
</svg>
