<?xml version="1.0" encoding="utf-8"?>
<!-- Generator: Adobe Illustrator 28.2.0, SVG Export Plug-In . SVG Version: 6.00 Build 0)  -->
<svg version="1.1" id="_图层_1" xmlns="http://www.w3.org/2000/svg" xmlns:xlink="http://www.w3.org/1999/xlink" x="0px" y="0px"
	 viewBox="0 0 200 200" style="enable-background:new 0 0 200 200;" xml:space="preserve">
<style type="text/css">
	.st0{fill:#5976EC;}
	.st1{fill:#2750F6;}
</style>
<path class="st0" d="M132.9,2.9l53.4,53.4v119.3c0,11.9-9.7,21.6-21.6,21.6H35.2c-11.9,0-21.6-9.7-21.6-21.6V24.5
	c0-11.9,9.7-21.6,21.6-21.6H132.9L132.9,2.9z M74.4,91.5c-1.6-1.4-4-1.3-5.5,0.2l-19.1,19.1l-0.4,0.4c-1.2,1.6-1.1,3.9,0.4,5.3
	l19.1,19.1l0.4,0.4c1.6,1.2,3.9,1.1,5.3-0.4l0.4-0.4c1.2-1.6,1.1-3.9-0.4-5.3l-16.2-16.2l16.2-16.2l0.4-0.4
	C76.2,95.4,76,93,74.4,91.5z M128.1,91.4c-1.6-1.2-3.9-1.1-5.3,0.4l-0.4,0.4c-1.2,1.6-1.1,3.9,0.4,5.3l16.2,16.2l-16.2,16.2
	l-0.4,0.4c-1.3,1.8-1,4.3,0.8,5.7c1.6,1.2,3.8,1,5.2-0.4l19.1-19.1l0.4-0.4c1.2-1.6,1.1-3.9-0.4-5.3l-19.1-19.1L128.1,91.4z
	 M107.9,90.8c-2-0.7-4.2,0.3-5,2.3l-15.8,38.2l-0.2,0.5c-0.5,2.2,0.8,4.4,2.9,4.9c1.9,0.5,3.9-0.5,4.7-2.3l15.8-38.2l0.2-0.5
	C111,93.6,109.9,91.5,107.9,90.8z"/>
<path class="st1" d="M132.9,45.5V2.9l53.4,53.4h-42.6C137.8,56.3,132.9,51.4,132.9,45.5"/>
</svg>
