<?xml version="1.0" encoding="utf-8"?>
<!-- Generator: Adobe Illustrator 28.2.0, SVG Export Plug-In . SVG Version: 6.00 Build 0)  -->
<svg version="1.1" id="图层_1" xmlns="http://www.w3.org/2000/svg" xmlns:xlink="http://www.w3.org/1999/xlink" x="0px" y="0px"
	 viewBox="0 0 300 52.9" style="enable-background:new 0 0 300 52.9;" xml:space="preserve">
<style type="text/css">
	.st0{display:none;fill:url(#SVGID_1_);}
	.st1{fill:none;}
	.st2{fill:#3E3A39;}
	.st3{fill:#5078BB;}
</style>
<linearGradient id="SVGID_1_" gradientUnits="userSpaceOnUse" x1="223.91" y1="26.585" x2="296.52" y2="26.585" gradientTransform="matrix(1 0 0 -1 0 53.89)">
	<stop  offset="0" style="stop-color:#1B3C96"/>
	<stop  offset="1" style="stop-color:#000000"/>
</linearGradient>
<rect x="223.9" y="6.6" class="st0" width="72.6" height="41.3"/>
<g>
	<path class="st2" d="M35.5,42.1h6.9l0.5-14.3H24.3c-0.5,5.1-2.1,9.4-4.7,13C16.9,44.4,13,47,7.9,48.6l0.2-7.2
		c3.3-1.3,5.8-3.4,7.5-6.3s2.5-6.2,2.7-10.2L18.6,15h-9l0.2-6.1h18.4l0.2-4.6h6.3l-0.2,4.6H53L52.8,15H24.9l-0.2,6.7h24.6l-0.9,26.7
		H35.3L35.5,42.1z"/>
	<path class="st2" d="M56.5,37.9l4.9-0.8L62,20.8h-4.6l0.2-6.4h4.6l0.3-9.3h6.4l-0.3,9.3h4.6L73,20.8h-4.6L67.8,36l4.7-0.8l-0.2,6.4
		l-16,2.6L56.5,37.9z M87.6,31.3h-4.1c-0.8,3.5-1.7,6.6-2.6,9.4c-0.9,2.8-2,5.4-3.3,7.8h-6.7c2.7-5.6,4.9-11.3,6.4-17.2h-5.7
		l0.2-6.1h9.7l0.3-9.9H74l0.2-6.1h7.8l0.1-4.4h6.2l-0.1,4.4h11.3l-0.5,16.1h2.1l-0.2,6.1h-7.2c1.2,5.9,2.9,11.6,5.2,17.2h-6.7
		C90.4,44.1,88.8,38.4,87.6,31.3z M93.1,25.1l0.3-9.9h-5.6l-0.3,9.9H93.1z"/>
	<path class="st2" d="M104.7,36.9l13.2-1.5l0.2,0.1l1.2-2.7h-13.1l0.2-4.9h21.5l-3.4,7.3l5-0.6l-0.2,4.8l-7.9,1l-0.3,8h-12.7
		l0.2-4.6h6.8l0.1-3.4l-10.9,1.2L104.7,36.9z M105.7,6.8h9l0.1-2.2h5.8l-0.1,2.2h9l-0.2,5h-23.8L105.7,6.8z M106.8,13.4h20.9
		l-0.4,12.8h-20.9L106.8,13.4z M121.9,21.6l0.1-3.5h-9.8l-0.1,3.5H121.9z M142.7,34.8c0.1-3.3-0.8-6.6-2.7-9.9
		c1.6-4.3,2.6-8.7,3-13.2h-5.9l-1.3,36.6h-6l1.5-42.5h17.8c-0.1,3.6-0.4,7-0.9,9.9c-0.5,3-1.2,6-2.1,8.9c1.8,3.3,2.6,6.7,2.5,10.3
		c-0.1,3.3-1,6.6-2.7,9.8h-6.6C141.5,41.3,142.6,38,142.7,34.8z"/>
</g>
<g>
	<g>
		<path class="st3" d="M162.9,38.4c-1-0.1-1.9-0.3-2.7-0.6v-3.1c1.7,0.4,3.4,0.6,5.1,0.6c1.1,0,1.9-0.2,2.5-0.7
			c0.6-0.5,0.8-1.1,0.8-2c-0.9,0.6-1.9,0.9-3.1,0.9c-1.2,0-2.2-0.3-3.1-0.9c-0.9-0.6-1.6-1.4-2.1-2.4c-0.5-1-0.7-2.2-0.7-3.5
			c0-1.3,0.2-2.5,0.7-3.5c0.5-1,1.2-1.8,2.1-2.4c0.9-0.6,1.9-0.9,3.1-0.9c1.1,0,2.2,0.4,3.1,1.1v-0.8h3.7v12.9
			c0,3.7-2.2,5.5-6.6,5.5C164.9,38.6,163.9,38.6,162.9,38.4z M163.8,28.7c0.3,0.6,0.7,1.1,1.2,1.5s1,0.5,1.5,0.5
			c0.4,0,0.8-0.1,1.3-0.3c0.5-0.2,0.9-0.6,1.3-1.2l0.1-0.5v-4.4c-0.3-0.7-0.8-1.1-1.3-1.4s-1-0.3-1.4-0.3c-0.5,0-1.1,0.2-1.5,0.5
			c-0.5,0.4-0.9,0.8-1.2,1.5s-0.4,1.3-0.4,2.1C163.3,27.4,163.5,28.1,163.8,28.7z"/>
		<path class="st3" d="M183.9,33.2c-0.3-0.5-0.4-1-0.5-1.5c-0.6,0.5-1.3,1-2.1,1.3s-1.6,0.5-2.4,0.5c-1.2,0-2.2-0.4-2.9-1.1
			c-0.7-0.7-1.1-1.6-1.1-2.8v-9.4h3.8V29c0,0.5,0.2,0.8,0.5,1.1c0.3,0.3,0.7,0.4,1.2,0.4c0.3,0,0.8-0.1,1.4-0.4
			c0.6-0.2,1-0.5,1.4-0.8v-9.2h3.8v10.5c0,0.5,0,1,0.1,1.3c0.1,0.4,0.2,0.7,0.4,1.2H183.9z"/>
		<path class="st3" d="M192.1,32.6c-1-0.6-1.8-1.4-2.4-2.4c-0.6-1-0.8-2.3-0.8-3.7c0-2.2,0.6-3.8,1.8-5s2.9-1.7,5-1.7
			c2.1,0,3.8,0.6,5,1.7s1.8,2.8,1.8,5c0,1.4-0.3,2.6-0.8,3.7c-0.6,1-1.4,1.8-2.4,2.4c-1,0.6-2.2,0.8-3.6,0.8
			C194.4,33.5,193.2,33.2,192.1,32.6z M193.5,29.6c0.6,0.8,1.3,1.1,2.2,1.1c0.9,0,1.6-0.4,2.2-1.1c0.6-0.8,0.8-1.7,0.8-3
			c0-1.3-0.3-2.3-0.8-2.9c-0.5-0.7-1.3-1-2.2-1c-0.9,0-1.7,0.3-2.2,1c-0.5,0.7-0.8,1.6-0.8,2.9C192.7,27.8,193,28.8,193.5,29.6z"/>
		<path class="st3" d="M208.3,14.7v6.9c0.6-0.5,1.2-0.9,1.9-1.1s1.4-0.4,2.1-0.4c1.2,0,2.2,0.4,2.9,1.1c0.7,0.7,1.1,1.7,1.1,2.8v9.2
			h-3.8v-8.5c0-0.5-0.2-0.8-0.6-1.1c-0.4-0.3-0.8-0.4-1.4-0.4c-0.3,0-0.7,0.1-1.1,0.3c-0.4,0.2-0.8,0.4-1.2,0.7v9.1h-3.8V14.7H208.3
			z"/>
		<path class="st3" d="M227.8,33.2c-0.3-0.5-0.4-1-0.5-1.5c-0.6,0.5-1.3,1-2.1,1.3s-1.6,0.5-2.4,0.5c-1.2,0-2.2-0.4-2.9-1.1
			c-0.7-0.7-1.1-1.6-1.1-2.8v-9.4h3.8V29c0,0.5,0.2,0.8,0.5,1.1c0.3,0.3,0.7,0.4,1.2,0.4c0.3,0,0.8-0.1,1.4-0.4
			c0.6-0.2,1-0.5,1.4-0.8v-9.2h3.8v10.5c0,0.5,0,1,0.1,1.3c0.1,0.4,0.2,0.7,0.4,1.2H227.8z"/>
		<path class="st3" d="M236.7,32.3c-0.1,0.4-0.2,0.6-0.3,0.9h-3.6c0.3-0.7,0.5-1.7,0.5-3V14.7h3.8V21c0.5-0.4,1-0.6,1.5-0.8
			s1.1-0.3,1.6-0.3c1.2,0,2.2,0.3,3.1,0.9c0.9,0.6,1.6,1.4,2.1,2.4c0.5,1,0.7,2.2,0.7,3.5c0,1.3-0.2,2.5-0.7,3.5
			c-0.5,1-1.2,1.8-2.1,2.4c-0.9,0.6-1.9,0.9-3.1,0.9C238.9,33.5,237.7,33.1,236.7,32.3z M236.7,29.2c0.3,0.6,0.8,1.1,1.3,1.2
			c0.5,0.2,1,0.3,1.4,0.3c0.5,0,1.1-0.2,1.5-0.5c0.5-0.4,0.9-0.8,1.2-1.5s0.4-1.3,0.4-2c0-0.8-0.1-1.4-0.4-2.1s-0.7-1.1-1.2-1.5
			c-0.5-0.4-1-0.5-1.5-0.5c-0.4,0-0.9,0.1-1.4,0.3c-0.5,0.2-0.9,0.6-1.3,1.2V29.2z"/>
		<path class="st3" d="M252.9,29.2v3.9h-3.9v-3.9H252.9z"/>
		<path class="st3" d="M257.1,20.2v-3.7h3.6v3.7h2.5v2.9h-2.5v5.6c0,0.5,0,0.8,0.1,1.1s0.2,0.4,0.4,0.5c0.2,0.1,0.5,0.1,0.8,0.1
			c0.2,0,0.4,0,0.6,0c0.2,0,0.3,0,0.4-0.1v3c-0.7,0.1-1.3,0.1-1.9,0.1c-1.1,0-1.9-0.1-2.5-0.3c-0.5-0.2-1-0.6-1.2-1.2
			c-0.3-0.6-0.4-1.3-0.4-2.4v-6.4h-1.9v-2.9H257.1z"/>
		<path class="st3" d="M267.6,32.6c-1-0.6-1.8-1.4-2.4-2.4c-0.6-1-0.8-2.3-0.8-3.7c0-2.2,0.6-3.8,1.8-5s2.9-1.7,5-1.7
			c2.1,0,3.8,0.6,5,1.7s1.8,2.8,1.8,5c0,1.4-0.3,2.6-0.8,3.7c-0.6,1-1.4,1.8-2.4,2.4c-1,0.6-2.2,0.8-3.6,0.8
			C269.8,33.5,268.6,33.2,267.6,32.6z M269,29.6c0.6,0.8,1.3,1.1,2.2,1.1c0.9,0,1.6-0.4,2.2-1.1c0.6-0.8,0.8-1.7,0.8-3
			c0-1.3-0.3-2.3-0.8-2.9c-0.5-0.7-1.3-1-2.2-1c-0.9,0-1.7,0.3-2.2,1c-0.5,0.7-0.8,1.6-0.8,2.9C268.1,27.8,268.4,28.8,269,29.6z"/>
		<path class="st3" d="M279.4,38.6c0.2-0.5,0.3-1.3,0.4-2.3c0.1-1,0.1-1.9,0.1-2.7V20.2h3.8v1.2c0.5-0.5,1.1-0.9,1.7-1.1
			c0.6-0.3,1.3-0.4,1.9-0.4c1.2,0,2.2,0.3,3.1,0.9c0.9,0.6,1.6,1.4,2.1,2.4c0.5,1,0.7,2.2,0.7,3.5c0,1.3-0.2,2.5-0.7,3.5
			c-0.5,1-1.2,1.8-2.1,2.4c-0.9,0.6-1.9,0.9-3.1,0.9c-1.4,0-2.7-0.4-3.6-1.2v1.5c0,0.8,0,1.8-0.1,2.7c-0.1,1-0.2,1.7-0.3,2.2H279.4z
			 M283.7,29.1c0.3,0.7,0.8,1.1,1.3,1.3c0.5,0.2,1,0.3,1.4,0.3c0.5,0,1.1-0.2,1.5-0.5s0.9-0.8,1.2-1.5c0.3-0.6,0.4-1.3,0.4-2
			c0-0.8-0.1-1.4-0.4-2.1s-0.7-1.1-1.2-1.5c-0.5-0.4-1-0.5-1.5-0.5c-0.4,0-0.9,0.1-1.4,0.3c-0.5,0.2-0.9,0.6-1.3,1.3V29.1z"/>
	</g>
</g>
</svg>
