<?xml version="1.0" encoding="utf-8"?>
<!-- Generator: Adobe Illustrator 28.2.0, SVG Export Plug-In . SVG Version: 6.00 Build 0)  -->
<svg version="1.1" id="图层_1" xmlns="http://www.w3.org/2000/svg" xmlns:xlink="http://www.w3.org/1999/xlink" x="0px" y="0px"
	 viewBox="0 0 300 52.9" style="enable-background:new 0 0 300 52.9;" xml:space="preserve">
<linearGradient id="SVGID_1_" gradientUnits="userSpaceOnUse" x1="223.91" y1="26.585" x2="296.52" y2="26.585" gradientTransform="matrix(1 0 0 -1 0 53.89)">
	<stop  offset="0" style="stop-color:#1B3C96"/>
	<stop  offset="1" style="stop-color:#000000"/>
</linearGradient>
<rect x="223.9" y="6.6" style="display:none;fill:url(#SVGID_1_);" width="72.6" height="41.3"/>
<g>
	<rect x="-23.5" y="-187" style="fill:none;" width="184.7" height="18.1"/>
</g>
<g>
	<path style="fill:#3E3A39;" d="M35.5,42.1h6.9l0.5-14.3H24.3c-0.5,5.1-2.1,9.4-4.7,13C16.9,44.4,13,47,7.9,48.6l0.2-7.2
		c3.3-1.3,5.8-3.4,7.5-6.3s2.5-6.2,2.7-10.2L18.6,15h-9l0.2-6.1h18.4l0.2-4.6h6.3l-0.2,4.6H53L52.8,15H24.9l-0.2,6.7h24.6l-0.9,26.7
		H35.3L35.5,42.1z"/>
	<path style="fill:#3E3A39;" d="M56.5,37.9l4.9-0.8L62,20.8h-4.6l0.2-6.4h4.6l0.3-9.3h6.4l-0.3,9.3h4.6L73,20.8h-4.6L67.8,36
		l4.7-0.8l-0.2,6.4l-16,2.6L56.5,37.9z M87.6,31.3h-4.1c-0.8,3.5-1.7,6.6-2.6,9.4c-0.9,2.8-2,5.4-3.3,7.8h-6.7
		c2.7-5.6,4.9-11.3,6.4-17.2h-5.7l0.2-6.1h9.7l0.3-9.9H74l0.2-6.1h7.8l0.1-4.4h6.2l-0.1,4.4h11.3l-0.5,16.1h2.1l-0.2,6.1h-7.2
		c1.2,5.9,2.9,11.6,5.2,17.2h-6.7C90.4,44.1,88.8,38.4,87.6,31.3z M93.1,25.1l0.3-9.9h-5.6l-0.3,9.9H93.1z"/>
	<path style="fill:#3E3A39;" d="M104.7,36.9l13.2-1.5l0.2,0.1l1.2-2.7h-13.1l0.2-4.9h21.5l-3.4,7.3l5-0.6l-0.2,4.8l-7.9,1l-0.3,8
		h-12.7l0.2-4.6h6.8l0.1-3.4l-10.9,1.2L104.7,36.9z M105.7,6.8h9l0.1-2.2h5.8l-0.1,2.2h9l-0.2,5h-23.8L105.7,6.8z M106.8,13.4h20.9
		l-0.4,12.8h-20.9L106.8,13.4z M121.9,21.6l0.1-3.5h-9.8l-0.1,3.5H121.9z M142.7,34.8c0.1-3.3-0.8-6.6-2.7-9.9
		c1.6-4.3,2.6-8.7,3-13.2h-5.9l-1.3,36.6h-6l1.5-42.5h17.8c-0.1,3.6-0.4,7-0.9,9.9c-0.5,3-1.2,6-2.1,8.9c1.8,3.3,2.6,6.7,2.5,10.3
		c-0.1,3.3-1,6.6-2.7,9.8h-6.6C141.5,41.3,142.6,38,142.7,34.8z"/>
</g>
</svg>
